<svg fill="none" height="32" viewBox="0 0 32 32" width="32" xmlns="http://www.w3.org/2000/svg" xmlns:xlink="http://www.w3.org/1999/xlink"><clipPath id="a"><path d="m0 0h32v32h-32z"/></clipPath><g clip-path="url(#a)" fill="#212121"><path d="m26.3006 14.1323c.8671 0 1.57-.7029 1.57-1.57 0-.867-.7029-1.57-1.57-1.57s-1.57.703-1.57 1.57c0 .8671.7029 1.57 1.57 1.57z"/><path d="m13.3805 27.0124c.8671 0 1.57-.703 1.57-1.57 0-.8671-.7029-1.57-1.57-1.57s-1.57.7029-1.57 1.57c0 .867.7029 1.57 1.57 1.57z"/><path d="m27.7905 17.9824c0 .5467-.4432.9899-.99.9899-.5467 0-.99-.4432-.99-.9899 0-.5468.4433-.9901.99-.9901.5468 0 .99.4433.99.9901z"/><path d="m21.8005 24.9823c1.6569 0 3-1.3431 3-3 0-1.6568-1.3431-3-3-3-1.6568 0-3 1.3432-3 3 0 1.6569 1.3432 3 3 3z"/><path d="m21.4664 6.10168.0016.00682c.4276 1.74457.4807 3.6441.0158 5.6253-1.079 4.5617-4.8391 8.1429-9.4281 8.9703l-.0035.0007c-2.50211.4557-4.86807.1124-6.92731-.7835-1.20233-.5308-2.39468-.0655-3.04914.7071-.63794.753-.89276 1.9285-.3172 3.0002l.00441.0082c3.02704 5.5743 9.27144 9.1421 16.24044 8.2183l.0013-.0002c7.1394-.9512 12.8333-6.7529 13.6915-13.8938l.0011-.0086c.6836-5.9023-1.8301-11.25354-6.0315-14.55304l-.0095-.00747-.0096-.00735c-1.9323-1.48008-4.7727.26298-4.1803 2.71704zm-9.0559 16.57072c5.38-.97 9.76-5.15 11.02-10.48.4272-1.8196.4789-3.58904.2343-5.25894-.0074-.05039-.015-.10069-.0229-.15091-.0335-.21202-.0717-.42241-.1145-.63105l-.0048-.02303c-.0344-.16649-.0718-.33187-.1121-.49607-.14-.58.55-1.02 1.02-.66.1309.1028.26.20786.3871.31513l.0048.00407c.1845.15586.3649.31636.541.48134.053.0496.1056.09961.1578.15001 3.0136 2.91076 4.7274 7.15405 4.1893 11.79945-.75 6.24-5.74 11.32-11.97 12.15-5.5924.7414-10.64027-1.8096-13.48734-5.9891-.04187-.0614-.08327-.1232-.12418-.1854-.13376-.2032-.26237-.4102-.38566-.6207l-.00807-.0138c-.07349-.1257-.14507-.2528-.21471-.381-.29-.54.24-1.18.8-.93.17117.0746.34416.1459.51889.2138l.00855.0033c.19121.0742.3845.1443.57976.2103.04515.0152.0904.0303.13575.0451 2.10089.6856 4.4255.8885 6.84701.4475z"/></g></svg>